<svg xmlns="http://www.w3.org/2000/svg" version="1.1" xmlns:xlink="http://www.w3.org/1999/xlink" width="2000" height="574" viewBox="0 0 2000 574"><svg xml:space="preserve" width="2000" height="574" data-version="2" data-id="lg_uvmnhkD0uHk7bGW861" viewBox="0 0 422 121" x="0" y="0">
    <path fill="#041CFF" d="m53.705 17.595 1.14 2.33q1.14 2.33 1.14 8.05 0 5.72-2.28 10.34-2.29 4.62-5.9 7.35-7.3 5.63-15.14 5.63h-11v9.95q0 2.02-.13 3.03-.13 1.02-.83 2.34-1.24 2.37-6.87 2.37-6.16 0-7.21-3.25-.53-1.5-.53-4.58v-48.84q0-2.02.13-3.04.13-1.01.84-2.33 1.23-2.37 6.86-2.37h18.83q7.75 0 15.05 5.63 3.61 2.73 5.9 7.39m-20.95 18.13q2.64 0 5.19-1.94 2.56-1.93 2.56-5.81 0-3.87-2.56-5.85-2.55-1.98-5.28-1.98h-11v15.58z"></path>
    <rect width="49.89" height="64.41" x="-24.945" y="-32.205" fill="none" rx="0" ry="0" transform="matrix(1 0 0 1 31.54 37.28)"></rect>
    <path fill="#041CFF" d="M57.835 8.615q0-2.02.13-3.03.14-1.01.75-2.33 1.23-2.38 6.87-2.38 5.36 0 6.68 2.38.71 1.32.84 2.37.13 1.06.13 3.08v40.75q0 3.16.53 4 .53.84 2.33.84 1.81 0 2.42.13.62.13 1.5.75 1.76 1.14 1.76 6.24 0 5.55-1.76 6.78-2.29 1.58-10.91.53-6.78-.88-8.8-4.49-2.47-4.31-2.47-13.73Z"></path>
    <rect width="23.94" height="68.581" x="-11.97" y="-34.291" fill="none" rx="0" ry="0" transform="matrix(1 0 0 1 70.305 35.666)"></rect>
    <path fill="#041CFF" d="M112.835 27.625q.53-4.93 6.95-4.93 3.44 0 5.11.53 1.67.53 2.33 1.85.66 1.32.79 2.33t.13 3.04v30.8q0 2.02-.13 3.03-.13 1.02-.75 2.34-1.23 2.28-6.02 2.28-4.8 0-6.43-1.18-1.63-1.19-1.89-3.48-3.26 4.66-10.87 4.66-7.61 0-14.12-6.95-6.51-6.95-6.51-16.15 0-9.19 6.55-16.1 6.56-6.91 14.39-6.91 2.99 0 5.46 1.06 2.46 1.05 3.43 1.98.97.92 1.58 1.8m-16.01 18.31v1.45q0 1.45 2.28 3.78 2.29 2.33 5.55 2.33 3.25 0 5.41-2.37 2.16-2.38 2.16-5.24 0-2.86-2.07-5.32-2.07-2.47-5.55-2.47-3.47 0-5.63 2.47-2.15 2.46-2.15 5.37"></path>
    <rect width="46.72" height="46.2" x="-23.36" y="-23.1" fill="none" rx="0" ry="0" transform="matrix(1 0 0 1 105.285 46.295)"></rect>
    <path fill="#041CFF" d="M157.105 22.695q8.8 0 14.65 6.74 5.85 6.73 5.85 16.41v15.49q0 2.02-.13 3.03-.13 1.01-.75 2.25-1.23 2.37-6.86 2.37-6.25 0-7.22-3.25-.53-1.5-.53-4.49v-15.49q0-3.61-2.07-5.63-2.06-2.03-5.54-2.03t-5.63 2.12q-2.16 2.11-2.16 5.54v15.58q0 2.02-.13 3.03-.13 1.01-.84 2.25-1.14 2.37-6.77 2.37-5.55 0-6.78-2.37-.61-1.32-.75-2.34-.13-1.01-.13-3.03v-31.15q0-1.94.13-2.95.14-1.01.84-2.25 1.23-2.2 6.78-2.2 5.36 0 6.6 2.03.88 1.49.88 3.61.35-.62 1.58-1.76 1.23-1.15 2.38-1.85 2.99-2.03 6.6-2.03"></path>
    <rect width="46.29" height="46.29" x="-23.145" y="-23.145" fill="none" rx="0" ry="0" transform="matrix(1 0 0 1 154.96 46.34)"></rect>
    <path fill="#041CFF" d="M221.255 23.225q5.19 2.29 5.19 5.55 0 1.58-.7 2.99-.71 1.41-.71 1.49l-23.05 51.57q-.71 1.67-1.19 2.55-.49.88-1.54 1.68-1.06.79-2.64.79-1.59 0-4.67-1.32-5.19-2.29-5.19-5.46 0-2.11 8.45-20.15l-17.51-29.48q-1.76-2.9-1.76-4.31 0-2.82 4.75-5.63 2.99-1.76 4.66-1.76 1.68 0 2.73.7 1.06.7 1.54 1.45.49.75 4.84 8.19 4.36 7.43 8.32 13.86.44-1.41 4.75-10.87 4.31-9.46 4.62-10.08.31-.61 1.01-1.49 1.15-1.5 3.21-1.5 2.07 0 4.89 1.23"></path>
    <rect width="50.51" height="68.11" x="-25.255" y="-34.055" fill="none" rx="0" ry="0" transform="matrix(1 0 0 1 201.69 56.29)"></rect>
    <path fill="#041CFF" d="m259.535 45.845 9.77 9.85q3.16 3.17 3.16 5.42 0 2.24-3.16 5.36-3.17 3.13-5.37 3.13t-5.37-3.17l-9.68-9.77-9.77 9.77q-3.17 3.17-5.32 3.17-2.16 0-5.37-3.13-3.21-3.12-3.21-5.36 0-2.25 3.17-5.42l9.76-9.85-9.76-9.86q-3.17-3.17-3.17-5.41t3.21-5.41q3.21-3.17 5.37-3.17 2.15 0 5.32 3.17l9.77 9.85 9.68-9.85q3.17-3.17 5.37-3.17t5.37 3.17q3.16 3.17 3.16 5.41t-3.16 5.41Z"></path>
    <rect width="47.25" height="47.61" x="-23.625" y="-23.805" fill="none" rx="0" ry="0" transform="matrix(1 0 0 1 249.34 46.3)"></rect>
    <path fill="#688095" d="M3.825 114.125v-17.5h5.9q2.85 0 4.35 1.28 1.5 1.27 1.5 3.32 0 1.25-.61 2.17-.62.91-2.22 1.51 2.15.5 2.98 1.64.82 1.13.82 2.76 0 2.2-1.67 3.51-1.68 1.31-4.53 1.31Zm3.5-10.27h2.07q1.43 0 2.03-.51.6-.52.6-1.57 0-.9-.6-1.46-.6-.56-2.03-.56h-2.07Zm0 7.12h2.7q1.42 0 2.2-.53.77-.54.77-1.69 0-.95-.77-1.5-.78-.55-2.2-.55h-2.7Z"></path>
    <rect width="12.72" height="17.5" x="-6.36" y="-8.75" fill="none" rx="0" ry="0" transform="matrix(1 0 0 1 10.685 105.875)"></rect>
    <path fill="#688095" d="M23.175 114.425q-1.4 0-2.53-.65-1.12-.65-1.77-1.86-.65-1.21-.65-2.84v-7.95h3.37v7.13q0 1.67.68 2.45.67.77 1.92.77 1.08 0 1.89-.77.81-.78.81-2.45v-7.13h3.38v13h-3.28v-1.95q-.47 1.13-1.38 1.69-.92.56-2.44.56"></path>
    <rect width="12.05" height="13.3" x="-6.025" y="-6.65" fill="none" rx="0" ry="0" transform="matrix(1 0 0 1 24.75 108.275)"></rect>
    <path fill="#688095" d="M34.375 100.055q-.85 0-1.44-.59t-.59-1.41q0-.8.59-1.39.59-.59 1.44-.59.87 0 1.45.59.57.59.57 1.39 0 .85-.57 1.42-.58.58-1.45.58m-1.68 14.07v-13h3.38v13Z"></path>
    <rect width="4.05" height="18.05" x="-2.025" y="-9.025" fill="none" rx="0" ry="0" transform="matrix(1 0 0 1 34.87 105.6)"></rect>
    <path fill="#688095" d="M38.495 114.125v-18.25h3.38v18.25Z"></path>
    <rect width="3.38" height="18.25" x="-1.69" y="-9.125" fill="none" rx="0" ry="0" transform="matrix(1 0 0 1 40.685 105.5)"></rect>
    <path fill="#688095" d="M50.225 114.455q-1.78 0-3.24-.91-1.46-.92-2.32-2.45-.87-1.54-.87-3.42 0-1.4.5-2.63.5-1.24 1.38-2.18.87-.94 2.04-1.47 1.16-.54 2.51-.54 1.67 0 2.62.62.95.63 1.48 1.65v-7.25h3.37v18.25h-3.27v-2.12q-.53 1.1-1.49 1.77-.96.68-2.71.68m.55-3.05q1.12 0 1.94-.51.81-.52 1.26-1.37.45-.85.45-1.85 0-1.02-.45-1.87-.45-.85-1.26-1.38-.82-.52-1.94-.52-1.08 0-1.89.51-.81.51-1.26 1.36-.45.85-.45 1.88 0 .97.45 1.84.45.86 1.26 1.38.81.53 1.89.53"></path>
    <rect width="13.9" height="18.58" x="-6.95" y="-9.29" fill="none" rx="0" ry="0" transform="matrix(1 0 0 1 51.245 105.665)"></rect>
    <path fill="#688095" d="M70.645 114.455q-2 0-3.52-.93-1.53-.92-2.36-2.46-.84-1.54-.84-3.41 0-1.88.87-3.44.88-1.56 2.39-2.49 1.51-.92 3.46-.92t3.44.92q1.49.93 2.33 2.49.83 1.56.83 3.44 0 .27-.02.57-.03.3-.08.63h-9.72q.27 1.15 1.11 1.87.84.73 2.11.73 1.1 0 1.92-.5.81-.5 1.26-1.25l2.62 1.97q-.77 1.23-2.32 2-1.55.78-3.48.78m-.05-10.75q-1.2 0-2.05.72-.85.73-1.12 1.9h6.42q-.27-1.07-1.13-1.85-.87-.77-2.12-.77"></path>
    <rect width="13.32" height="13.65" x="-6.66" y="-6.825" fill="none" rx="0" ry="0" transform="matrix(1 0 0 1 71.085 108.13)"></rect>
    <path fill="#688095" d="m76.645 114.125 4.88-6.5-4.63-6.5h4.03l2.65 4.13 2.75-4.13h3.95l-4.63 6.55 4.88 6.45h-4.1l-2.83-4.15-2.92 4.15Z"></path>
    <rect width="13.88" height="13" x="-6.94" y="-6.5" fill="none" rx="0" ry="0" transform="matrix(1 0 0 1 84.085 108.125)"></rect>
    <path fill="#688095" d="M91.695 119.125v-18h3.33v2.1q.52-1.07 1.49-1.72.96-.65 2.66-.65 1.35 0 2.51.54 1.16.53 2.04 1.47.87.94 1.37 2.18.5 1.23.5 2.63 0 1.88-.86 3.42-.86 1.53-2.31 2.45-1.45.91-3.25.91-1.68 0-2.63-.61-.95-.62-1.47-1.64v6.92Zm6.93-7.72q1.07 0 1.89-.53.81-.52 1.26-1.38.45-.87.45-1.84 0-1.03-.45-1.88-.45-.85-1.26-1.36-.82-.51-1.89-.51-1.1 0-1.93.52-.82.53-1.27 1.38-.45.85-.45 1.87 0 1 .45 1.85.45.85 1.27 1.37.83.51 1.93.51"></path>
    <rect width="13.9" height="18.27" x="-6.95" y="-9.135" fill="none" rx="0" ry="0" transform="matrix(1 0 0 1 99.145 110.49)"></rect>
    <path fill="#688095" d="M113.625 114.455q-2 0-3.53-.93-1.52-.92-2.36-2.46-.84-1.54-.84-3.41 0-1.88.88-3.44.87-1.56 2.39-2.49 1.51-.92 3.46-.92t3.44.92q1.48.93 2.32 2.49.84 1.56.84 3.44 0 .27-.03.57-.02.3-.07.63h-9.73q.28 1.15 1.12 1.87.83.73 2.11.73 1.1 0 1.91-.5.81-.5 1.26-1.25l2.63 1.97q-.78 1.23-2.33 2-1.55.78-3.47.78m-.05-10.75q-1.2 0-2.05.72-.85.73-1.13 1.9h6.43q-.28-1.07-1.14-1.85-.86-.77-2.11-.77"></path>
    <rect width="13.33" height="13.65" x="-6.665" y="-6.825" fill="none" rx="0" ry="0" transform="matrix(1 0 0 1 114.06 108.13)"></rect>
    <path fill="#688095" d="M122.125 114.125v-13h3.27v2.48q.33-1.4 1.33-2.14 1-.74 2.7-.64v3.18h-.48q-1.45 0-2.45.92-1 .93-1 2.55v6.65Z"></path>
    <rect width="7.3" height="13.347" x="-3.65" y="-6.673" fill="none" rx="0" ry="0" transform="matrix(1 0 0 1 126.275 107.952)"></rect>
    <path fill="#688095" d="M132.645 100.055q-.85 0-1.43-.59-.59-.59-.59-1.41 0-.8.59-1.39.58-.59 1.43-.59.88 0 1.45.59.58.59.58 1.39 0 .85-.58 1.42-.57.58-1.45.58m-1.67 14.07v-13h3.37v13Z"></path>
    <rect width="4.05" height="18.05" x="-2.025" y="-9.025" fill="none" rx="0" ry="0" transform="matrix(1 0 0 1 133.15 105.6)"></rect>
    <path fill="#688095" d="M142.995 114.455q-2 0-3.52-.93-1.53-.92-2.36-2.46-.84-1.54-.84-3.41 0-1.88.87-3.44.88-1.56 2.39-2.49 1.51-.92 3.46-.92t3.44.92q1.49.93 2.33 2.49.83 1.56.83 3.44 0 .27-.02.57-.03.3-.08.63h-9.72q.27 1.15 1.11 1.87.84.73 2.11.73 1.1 0 1.92-.5.81-.5 1.26-1.25l2.62 1.97q-.77 1.23-2.32 2-1.55.78-3.48.78m-.05-10.75q-1.2 0-2.05.72-.85.73-1.12 1.9h6.42q-.27-1.07-1.13-1.85-.87-.77-2.12-.77"></path>
    <rect width="13.32" height="13.65" x="-6.66" y="-6.825" fill="none" rx="0" ry="0" transform="matrix(1 0 0 1 143.435 108.13)"></rect>
    <path fill="#688095" d="M151.495 114.125v-13h3.33v1.9q1.02-2.2 3.97-2.2 1.4 0 2.53.65 1.12.65 1.77 1.85.65 1.2.65 2.85v7.95h-3.37v-7.12q0-1.7-.78-2.46-.77-.77-2.02-.77-1.08 0-1.89.77-.81.76-.81 2.46v7.12Z"></path>
    <rect width="12.25" height="13.3" x="-6.125" y="-6.65" fill="none" rx="0" ry="0" transform="matrix(1 0 0 1 158.12 107.975)"></rect>
    <path fill="#688095" d="M172.245 114.455q-1.4 0-2.61-.53-1.21-.52-2.14-1.46-.92-.94-1.43-2.17-.52-1.24-.52-2.67 0-1.9.89-3.43.89-1.54 2.45-2.47 1.56-.92 3.54-.92 1.77-.03 3.17.62t2.23 1.8l-2.6 2.13q-.45-.68-1.16-1.08-.72-.4-1.59-.4-1.08 0-1.88.52-.8.51-1.23 1.36-.44.85-.44 1.87 0 1 .46 1.87.46.86 1.28 1.37.81.51 1.88.51.98 0 1.65-.43.68-.44 1.18-1.12l2.45 2.13q-.93 1.17-2.29 1.84-1.36.66-3.29.66"></path>
    <rect width="12.28" height="13.66" x="-6.14" y="-6.83" fill="none" rx="0" ry="0" transform="matrix(1 0 0 1 172.185 108.125)"></rect>
    <path fill="#688095" d="M184.975 114.455q-2 0-3.53-.93-1.52-.92-2.36-2.46-.84-1.54-.84-3.41 0-1.88.88-3.44.87-1.56 2.39-2.49 1.51-.92 3.46-.92t3.44.92q1.48.93 2.32 2.49.84 1.56.84 3.44 0 .27-.03.57-.02.3-.07.63h-9.73q.28 1.15 1.12 1.87.83.73 2.11.73 1.1 0 1.91-.5.81-.5 1.26-1.25l2.63 1.97q-.78 1.23-2.33 2-1.55.78-3.47.78m-.05-10.75q-1.2 0-2.05.72-.85.73-1.13 1.9h6.43q-.28-1.07-1.14-1.85-.86-.77-2.11-.77"></path>
    <rect width="13.33" height="13.65" x="-6.665" y="-6.825" fill="none" rx="0" ry="0" transform="matrix(1 0 0 1 185.41 108.13)"></rect>
    <path fill="#688095" d="M197.545 114.455q-3.27 0-5.4-2.28l2.28-2.07q1.42 1.6 3.05 1.6.87 0 1.34-.39.46-.39.46-.96 0-.35-.16-.6-.17-.25-.68-.48-.51-.22-1.54-.45-1.75-.42-2.6-1.05-.85-.62-1.12-1.4-.28-.77-.28-1.6 0-1.7 1.29-2.83 1.29-1.14 3.56-1.14 1.58 0 2.7.47 1.13.48 2.13 1.78l-2.45 1.87q-.48-.75-1.06-1.07-.59-.33-1.24-.33-.7 0-1.16.28-.47.27-.47.87 0 .33.3.64t1.45.61q1.9.48 2.9 1.12 1 .63 1.38 1.43.37.8.37 1.78 0 1.2-.66 2.15t-1.8 1.5q-1.14.55-2.59.55"></path>
    <rect width="10.45" height="13.65" x="-5.225" y="-6.825" fill="none" rx="0" ry="0" transform="matrix(1 0 0 1 197.87 108.13)"></rect>
    <path fill="#688095" d="M205.845 114.455q-.97 0-1.61-.65-.64-.65-.64-1.55 0-.88.64-1.53t1.61-.65q.98 0 1.6.65.63.65.63 1.53 0 .9-.63 1.55-.62.65-1.6.65"></path>
    <rect width="4.48" height="4.38" x="-2.24" y="-2.19" fill="none" rx="0" ry="0" transform="matrix(1 0 0 1 206.335 112.765)"></rect>
    <path fill="#688095" d="M222.725 114.455q-1.95 0-3.61-.7-1.67-.7-2.9-1.95-1.24-1.25-1.93-2.89-.69-1.64-.69-3.51 0-1.88.67-3.53.66-1.65 1.87-2.9t2.89-1.96q1.67-.71 3.7-.71 2.15 0 3.69.67 1.53.68 2.71 2.08l-2.48 2.15q-1.57-1.65-3.92-1.65-1.68 0-2.91.8-1.24.8-1.92 2.12-.67 1.33-.67 2.93t.67 2.91q.68 1.31 1.93 2.1t2.97.79q1.28 0 2.25-.43.98-.42 1.75-1.27l2.55 2.17q-1 1.2-2.66 1.99-1.66.79-3.96.79"></path>
    <rect width="15.75" height="18.15" x="-7.875" y="-9.075" fill="none" rx="0" ry="0" transform="matrix(1 0 0 1 221.97 105.88)"></rect>
    <path fill="#688095" d="M230.945 114.125v-13h3.28v2.48q.32-1.4 1.32-2.14 1-.74 2.7-.64v3.18h-.47q-1.45 0-2.45.92-1 .93-1 2.55v6.65Z"></path>
    <rect width="7.3" height="13.347" x="-3.65" y="-6.673" fill="none" rx="0" ry="0" transform="matrix(1 0 0 1 235.095 107.952)"></rect>
    <path fill="#688095" d="M245.395 114.455q-2 0-3.52-.93-1.53-.92-2.36-2.46-.84-1.54-.84-3.41 0-1.88.87-3.44.88-1.56 2.39-2.49 1.51-.92 3.46-.92t3.44.92q1.49.93 2.33 2.49.83 1.56.83 3.44 0 .27-.02.57-.03.3-.08.63h-9.72q.27 1.15 1.11 1.87.84.73 2.11.73 1.1 0 1.92-.5.81-.5 1.26-1.25l2.62 1.97q-.77 1.23-2.32 2-1.55.78-3.48.78m-.05-10.75q-1.2 0-2.05.72-.85.73-1.12 1.9h6.42q-.27-1.07-1.13-1.85-.87-.77-2.12-.77"></path>
    <rect width="13.32" height="13.65" x="-6.66" y="-6.825" fill="none" rx="0" ry="0" transform="matrix(1 0 0 1 245.835 108.13)"></rect>
    <path fill="#688095" d="M259.645 114.455q-1.77 0-3.23-.91-1.47-.92-2.33-2.45-.86-1.54-.86-3.42 0-1.4.5-2.63.5-1.24 1.37-2.18.88-.94 2.04-1.47 1.16-.54 2.51-.54 1.7 0 2.65.64.95.63 1.48 1.68v-2.05h3.35v13h-3.28v-2.12q-.52 1.1-1.48 1.77-.97.68-2.72.68m.55-3.05q1.13 0 1.94-.51.81-.52 1.26-1.37.45-.85.45-1.85 0-1.02-.45-1.87-.45-.85-1.26-1.38-.81-.52-1.94-.52-1.07 0-1.88.51-.82.51-1.27 1.36-.45.85-.45 1.88 0 .97.45 1.84.45.86 1.27 1.38.81.53 1.88.53"></path>
    <rect width="13.9" height="13.6" x="-6.95" y="-6.8" fill="none" rx="0" ry="0" transform="matrix(1 0 0 1 260.675 108.155)"></rect>
    <path fill="#688095" d="M274.475 114.125q-1.93 0-2.95-.95-1.03-.95-1.03-3.07v-6.1h-1.82v-2.88h1.82v-2.62l3.38-.35v2.97h2.75v2.88h-2.75v5.92q0 1.2 1.05 1.2h1.4v3Z"></path>
    <rect width="7.95" height="15.97" x="-3.975" y="-7.985" fill="none" rx="0" ry="0" transform="matrix(1 0 0 1 273.15 106.64)"></rect>
    <path fill="#688095" d="M284.045 114.455q-2 0-3.52-.93-1.53-.92-2.36-2.46-.84-1.54-.84-3.41 0-1.88.87-3.44.88-1.56 2.39-2.49 1.51-.92 3.46-.92t3.44.92q1.49.93 2.33 2.49.83 1.56.83 3.44 0 .27-.02.57-.03.3-.08.63h-9.72q.27 1.15 1.11 1.87.84.73 2.11.73 1.1 0 1.92-.5.81-.5 1.26-1.25l2.62 1.97q-.77 1.23-2.32 2-1.55.78-3.48.78m-.05-10.75q-1.2 0-2.05.72-.85.73-1.12 1.9h6.42q-.27-1.07-1.13-1.85-.87-.77-2.12-.77"></path>
    <rect width="13.32" height="13.65" x="-6.66" y="-6.825" fill="none" rx="0" ry="0" transform="matrix(1 0 0 1 284.485 108.13)"></rect>
    <path fill="#688095" d="M296.845 114.125v-13h3.33v1.9q1.02-2.2 3.97-2.2 1.38 0 2.48.64t1.75 1.81q.65-1.17 1.66-1.81 1.01-.64 2.74-.64 1.4 0 2.52.65 1.13.65 1.78 1.85.65 1.2.65 2.85v7.95h-3.38v-7.12q0-1.7-.72-2.46-.73-.77-1.88-.77-1.17 0-1.91.68-.74.67-.74 2.55v7.12h-3.37v-7.12q0-1.7-.78-2.46-.77-.77-2.02-.77-1.08 0-1.89.77-.81.76-.81 2.46v7.12Z"></path>
    <rect width="20.88" height="13.3" x="-10.44" y="-6.65" fill="none" rx="0" ry="0" transform="matrix(1 0 0 1 307.785 107.975)"></rect>
    <path fill="#688095" d="M326.245 114.455q-2 0-3.52-.93-1.53-.92-2.36-2.46-.84-1.54-.84-3.41 0-1.88.87-3.44.88-1.56 2.39-2.49 1.51-.92 3.46-.92t3.44.92q1.49.93 2.33 2.49.83 1.56.83 3.44 0 .27-.02.57-.03.3-.08.63h-9.72q.27 1.15 1.11 1.87.84.73 2.11.73 1.1 0 1.92-.5.81-.5 1.26-1.25l2.62 1.97q-.77 1.23-2.32 2-1.55.78-3.48.78m-.05-10.75q-1.2 0-2.05.72-.85.73-1.12 1.9h6.42q-.27-1.07-1.13-1.85-.87-.77-2.12-.77"></path>
    <rect width="13.32" height="13.65" x="-6.66" y="-6.825" fill="none" rx="0" ry="0" transform="matrix(1 0 0 1 326.685 108.13)"></rect>
    <path fill="#688095" d="M334.745 114.125v-13h3.33v1.9q1.02-2.2 3.97-2.2 1.38 0 2.48.64t1.75 1.81q.65-1.17 1.66-1.81 1.01-.64 2.74-.64 1.4 0 2.52.65 1.13.65 1.78 1.85.65 1.2.65 2.85v7.95h-3.38v-7.12q0-1.7-.72-2.46-.73-.77-1.88-.77-1.17 0-1.91.68-.74.67-.74 2.55v7.12h-3.37v-7.12q0-1.7-.78-2.46-.77-.77-2.02-.77-1.08 0-1.89.77-.81.76-.81 2.46v7.12Z"></path>
    <rect width="20.88" height="13.3" x="-10.44" y="-6.65" fill="none" rx="0" ry="0" transform="matrix(1 0 0 1 345.685 107.975)"></rect>
    <path fill="#688095" d="M364.345 114.455q-2 0-3.57-.93-1.58-.92-2.46-2.46-.89-1.54-.89-3.41 0-1.88.89-3.43.88-1.55 2.46-2.47 1.57-.93 3.57-.93 2.03 0 3.59.93 1.56.92 2.45 2.47.89 1.55.89 3.43 0 1.87-.89 3.41t-2.45 2.46q-1.56.93-3.59.93m0-3.08q1.08 0 1.88-.51.8-.51 1.24-1.36.43-.85.43-1.85 0-1.03-.43-1.88-.44-.85-1.24-1.36-.8-.51-1.88-.51-1.07 0-1.87.51t-1.24 1.36q-.44.85-.44 1.88 0 1 .44 1.85.44.85 1.24 1.36.8.51 1.87.51"></path>
    <rect width="13.85" height="13.63" x="-6.925" y="-6.815" fill="none" rx="0" ry="0" transform="matrix(1 0 0 1 364.85 108.14)"></rect>
    <path fill="#688095" d="M373.195 114.125v-13h3.28v2.48q.32-1.4 1.32-2.14 1-.74 2.7-.64v3.18h-.47q-1.45 0-2.45.92-1 .93-1 2.55v6.65Z"></path>
    <rect width="7.3" height="13.347" x="-3.65" y="-6.673" fill="none" rx="0" ry="0" transform="matrix(1 0 0 1 377.345 107.952)"></rect>
    <path fill="#688095" d="M383.725 100.055q-.85 0-1.44-.59t-.59-1.41q0-.8.59-1.39.59-.59 1.44-.59.87 0 1.45.59.57.59.57 1.39 0 .85-.57 1.42-.58.58-1.45.58m-1.68 14.07v-13h3.38v13Z"></path>
    <rect width="4.05" height="18.05" x="-2.025" y="-9.025" fill="none" rx="0" ry="0" transform="matrix(1 0 0 1 384.22 105.6)"></rect>
    <path fill="#688095" d="M394.075 114.455q-2 0-3.53-.93-1.52-.92-2.36-2.46-.84-1.54-.84-3.41 0-1.88.88-3.44.87-1.56 2.39-2.49 1.51-.92 3.46-.92t3.44.92q1.48.93 2.32 2.49.84 1.56.84 3.44 0 .27-.03.57-.02.3-.07.63h-9.73q.28 1.15 1.12 1.87.83.73 2.11.73 1.1 0 1.91-.5.81-.5 1.26-1.25l2.63 1.97q-.78 1.23-2.33 2-1.55.78-3.47.78m-.05-10.75q-1.2 0-2.05.72-.85.73-1.13 1.9h6.43q-.28-1.07-1.14-1.85-.86-.77-2.11-.77"></path>
    <rect width="13.33" height="13.65" x="-6.665" y="-6.825" fill="none" rx="0" ry="0" transform="matrix(1 0 0 1 394.51 108.13)"></rect>
    <path fill="#688095" d="M406.645 114.455q-3.27 0-5.4-2.28l2.28-2.07q1.42 1.6 3.05 1.6.87 0 1.34-.39.46-.39.46-.96 0-.35-.16-.6-.17-.25-.68-.48-.51-.22-1.54-.45-1.75-.42-2.6-1.05-.85-.62-1.12-1.4-.28-.77-.28-1.6 0-1.7 1.29-2.83 1.29-1.14 3.56-1.14 1.58 0 2.7.47 1.13.48 2.13 1.78l-2.45 1.87q-.48-.75-1.06-1.07-.59-.33-1.24-.33-.7 0-1.16.28-.47.27-.47.87 0 .33.3.64t1.45.61q1.9.48 2.9 1.12 1 .63 1.38 1.43.37.8.37 1.78 0 1.2-.66 2.15t-1.8 1.5q-1.14.55-2.59.55"></path>
    <rect width="10.45" height="13.65" x="-5.225" y="-6.825" fill="none" rx="0" ry="0" transform="matrix(1 0 0 1 406.97 108.13)"></rect>
    <path fill="#688095" d="M414.945 114.455q-.97 0-1.61-.65-.64-.65-.64-1.55 0-.88.64-1.53t1.61-.65q.98 0 1.6.65.63.65.63 1.53 0 .9-.63 1.55-.62.65-1.6.65"></path>
    <rect width="4.48" height="4.38" x="-2.24" y="-2.19" fill="none" rx="0" ry="0" transform="matrix(1 0 0 1 415.435 112.765)"></rect>
</svg></svg>